:SAMPLES-PER-SECOND 30
:FULLY-SPECIFIED
:DEGREES
306
root  7.3218 19.6698 -55.9211 -154.469 1.3544 160.685
RightUpLeg  -37.4457 -14.199 -12.7665
RightLeg  122.284 22.6781 -10.4184
RightFoot  -5.14079 0.0764079 -0.929681
RightToes  -5.82073e-011 -3.18055e-015 -2.98177e-016
Spine  44.001 7.02889 3.30532
Spine1  2.41011 7.75439 -9.33832
HEad  -26.1384 -15.7295 15.3864
LeftShoulder1  -3.88251e-019 9.70628e-020 -3.87848e-018
LeftArm  9.95758 -23.1953 -71.8275
LeftForeArm  -4.94541 -44.7369 11.0783
LeftHand  -0.992404 -11.512 7.28479
RightShoulder  2.25727 11.2873 5.83653
RightArm  -10.7891 11.0579 30.6991
RightForeArm  6.96023 0.539545 -10.4394
RightHand  -3.04783 6.39138 -29.2232
LeftUpLeg  -100.993 -9.52722 -36.669
LeftLeg  100.546 -23.3316 32.3027
LeftFoot  -31.6386 -0.340242 -1.55894
LeftToes  -3.44176e-011 4.05998e-011 -5.21293e-012
307
root  7.03465 19.8307 -55.8901 -157.483 0.421906 163.147
RightUpLeg  -32.8847 -14.8544 -10.9868
RightLeg  119.625 23.8459 -13.1251
RightFoot  -6.65619 0.0435353 -0.491137
RightToes  -5.82073e-011 -3.18055e-015 -2.98177e-016
Spine  43.1013 6.56452 3.45835
Spine1  2.9235 7.17575 -9.44636
HEad  -24.4063 -14.6828 15.8523
LeftShoulder1  -3.88251e-019 9.70628e-020 -3.87848e-018
LeftArm  9.41855 -16.6252 -69.4099
LeftForeArm  -4.03837 -42.7626 10.3335
LeftHand  -1.07499 -11.1492 8.02768
RightShoulder  2.44765 10.8087 7.37937
RightArm  -9.10513 7.15492 32.429
RightForeArm  8.98222 4.47123 -10.0251
RightHand  -1.81078 6.62331 -17.4428
LeftUpLeg  -98.2852 -8.77771 -34.7229
LeftLeg  100.15 -23.6512 33.57
LeftFoot  -32.1069 -0.328478 -1.44206
LeftToes  -3.44176e-011 4.05998e-011 -5.21293e-012
308
root  6.83519 20.112 -56.0263 -160.676 -0.0776062 165.3
RightUpLeg  -27.4812 -15.0584 -9.79278
RightLeg  116.016 24.405 -15.7499
RightFoot  -8.19547 0.0125603 0.194533
RightToes  -5.82073e-011 -3.18055e-015 -2.98177e-016
Spine  42.3117 6.02563 2.89509
Spine1  2.42392 6.21886 -10.0568
HEad  -22.245 -13.6633 16.0773
LeftShoulder1  -3.88251e-019 9.70628e-020 -3.87848e-018
LeftArm  9.62407 -9.60513 -66.5754
LeftForeArm  -4.06252 -38.9735 8.95549
LeftHand  -1.18583 -10.7314 9.04072
RightShoulder  2.73236 10.5304 9.32489
RightArm  -7.58007 1.22596 35.9418
RightForeArm  13.6401 6.42612 -9.14852
RightHand  -1.15365 7.08895 -10.7966
LeftUpLeg  -94.8043 -7.20353 -33.2792
LeftLeg  99.9834 -23.8993 34.3524
LeftFoot  -32.7642 -0.369003 -1.61394
LeftToes  -3.44176e-011 4.05998e-011 -5.21293e-012
309
root  6.72786 20.4978 -56.3187 -163.308 -0.211792 166.737
RightUpLeg  -21.8754 -14.8618 -9.34554
RightLeg  111.926 24.1201 -17.702
RightFoot  -10.4643 -0.0107127 1.80969
RightToes  -5.82073e-011 -3.18055e-015 -2.98177e-016
Spine  41.1098 5.61739 1.86016
Spine1  1.4099 5.30034 -11.1564
HEad  -20.5898 -13.3115 15.8176
LeftShoulder1  -3.88251e-019 9.70628e-020 -3.87848e-018
LeftArm  10.035 -2.75848 -64.3723
LeftForeArm  -4.7678 -33.3697 7.21331
LeftHand  -1.25287 -10.1535 9.87977
RightShoulder  3.21442 10.3994 12.2754
RightArm  -6.463 -5.8791 38.9756
RightForeArm  19.506 7.52339 -8.21977
RightHand  -0.967169 7.68996 -8.64095
LeftUpLeg  -91.043 -5.46744 -32.2704
LeftLeg  99.7861 -23.8924 34.6288
LeftFoot  -33.7385 -0.514097 -2.31634
LeftToes  -3.44176e-011 4.05998e-011 -5.21293e-012
310
root  6.66555 20.9767 -56.709 -164.715 -0.409988 167.601
RightUpLeg  -17.0964 -14.7092 -9.10146
RightLeg  107.522 23.1778 -18.9732
RightFoot  -13.2824 0.0452817 4.91988
RightToes  -5.82073e-011 -3.18055e-015 -2.98177e-016
Spine  38.6789 5.49386 0.497571
Spine1  0.846018 4.58996 -11.3643
HEad  -20.2885 -13.4965 14.4729
LeftShoulder1  -3.88251e-019 9.70628e-020 -3.87848e-018
LeftArm  6.61986 3.59811 -62.7332
LeftForeArm  -3.32946 -26.9831 4.57687
LeftHand  -1.15207 -9.0618 9.77669
RightShoulder  3.89925 10.466 16.1158
RightArm  -4.78799 -12.2172 39.5639
RightForeArm  25.1472 8.66917 -7.0889
RightHand  -0.944444 8.46466 -7.99506
LeftUpLeg  -87.7128 -4.46794 -31.3762
LeftLeg  99.1282 -23.4835 34.7197
LeftFoot  -34.7323 -0.708043 -3.21115
LeftToes  -3.44176e-011 4.05998e-011 -5.21293e-012
311
root  6.60007 21.5638 -57.0942 -164.992 -0.704666 168.289
RightUpLeg  -13.8158 -14.5843 -8.61297
RightLeg  103.064 21.8415 -19.6073
RightFoot  -15.6922 0.228358 8.47989
RightToes  -5.82073e-011 -3.18055e-015 -2.98177e-016
Spine  36.1714 5.15351 -0.650474
Spine1  -0.280971 3.80181 -11.3342
HEad  -21.3531 -13.429 12.5591
LeftShoulder1  -3.88251e-019 9.70628e-020 -3.87848e-018
LeftArm  -5.02047 9.93824 -60.7458
LeftForeArm  4.9318 -21.2843 0.0816098
LeftHand  -0.929382 -7.53104 8.87696
RightShoulder  4.66019 10.5655 20.2416
RightArm  -2.05393 -17.1023 38.0761
RightForeArm  31.3854 9.93472 -5.72557
RightHand  -0.800325 9.71296 -6.28146
LeftUpLeg  -85.1448 -4.25662 -30.3732
LeftLeg  97.869 -22.7039 34.8996
LeftFoot  -35.194 -0.868998 -3.95941
LeftToes  -3.44176e-011 4.05998e-011 -5.21293e-012
312
root  6.52915 22.2959 -57.4074 -164.696 -0.200104 169.224
RightUpLeg  -12.1563 -13.632 -7.75294
RightLeg  98.8487 20.3604 -19.5848
RightFoot  -17.29 0.43109 10.6656
RightToes  -5.82073e-011 -3.18055e-015 -2.98177e-016
Spine  34.0379 4.91629 -1.35427
Spine1  -1.57445 3.43116 -11.6382
HEad  -23.6952 -12.9065 10.8829
LeftShoulder1  -3.88251e-019 9.70628e-020 -3.87848e-018
LeftArm  -12.2594 15.956 -58.7862
LeftForeArm  6.64504 -16.1885 -1.57977
LeftHand  -0.777979 -6.19916 8.33027
RightShoulder  5.35776 10.6239 23.9679
RightArm  1.16767 -20.9851 35.5522
RightForeArm  38.6854 11.3194 -4.71133
RightHand  -0.501291 11.1921 -3.6744
LeftUpLeg  -83.2536 -3.55286 -29.1261
LeftLeg  96.2225 -21.5851 34.8782
LeftFoot  -35.264 -0.98186 -4.51946
LeftToes  -3.44176e-011 4.05998e-011 -5.21293e-012
313
root  6.45543 23.1933 -57.6707 -164.55 0.822388 170.228
RightUpLeg  -10.7246 -12.2556 -7.20977
RightLeg  94.6152 18.7365 -18.6938
RightFoot  -18.8137 0.623172 11.5113
RightToes  -5.82073e-011 -3.18055e-015 -2.98177e-016
Spine  32.4547 4.61533 -1.40193
Spine1  -2.41192 3.41599 -12.728
HEad  -26.6353 -12.2616 9.75053
LeftShoulder1  -3.88251e-019 9.70628e-020 -3.87848e-018
LeftArm  -13.8092 21.0919 -56.9838
LeftForeArm  2.28457 -12.0568 -2.11959
LeftHand  -0.739637 -5.44699 8.46887
RightShoulder  6.00927 10.7119 27.2966
RightArm  4.2169 -24.187 32.6881
RightForeArm  45.0412 12.6315 -4.34285
RightHand  -0.319699 12.2644 -2.28103
LeftUpLeg  -80.9964 -2.14113 -27.8673
LeftLeg  94.143 -20.0476 34.4104
LeftFoot  -35.3177 -1.03933 -4.79962
LeftToes  -3.44176e-011 4.05998e-011 -5.21293e-012
314
root  6.3951 24.194 -57.9348 -164.345 1.60564 171.54
RightUpLeg  -8.95694 -11.2172 -6.50243
RightLeg  89.7271 17.0087 -17.0599
RightFoot  -20.6112 0.885128 12.6187
RightToes  -5.82073e-011 -3.18055e-015 -2.98177e-016
Spine  31.0283 4.01682 -0.671807
Spine1  -3.14264 3.35301 -14.1679
HEad  -29.1593 -11.6408 8.76332
LeftShoulder1  -3.88251e-019 9.70628e-020 -3.87848e-018
LeftArm  -14.0625 25.8137 -55.1443
LeftForeArm  -0.796314 -9.00705 -2.63488
LeftHand  -0.672931 -4.89673 8.12571
RightShoulder  6.55575 10.7906 30.009
RightArm  6.37917 -26.8531 30.1768
RightForeArm  47.9847 13.3068 -4.14493
RightHand  -0.405167 12.3578 -2.83557
LeftUpLeg  -78.5642 -0.657717 -26.2857
LeftLeg  91.6852 -18.2543 33.6483
LeftFoot  -35.2959 -1.01805 -4.6963
LeftToes  -3.44176e-011 4.05998e-011 -5.21293e-012
315
root  6.36141 25.2482 -58.2008 -163.952 1.87805 173.002
RightUpLeg  -6.86241 -10.5105 -5.46873
RightLeg  83.963 15.3725 -14.8408
RightFoot  -21.8536 1.14299 14.1594
RightToes  -5.82073e-011 -3.18055e-015 -2.98177e-016
Spine  29.8576 3.34651 0.0747494
Spine1  -4.38023 2.95788 -14.7759
HEad  -30.7053 -10.8922 7.52085
LeftShoulder1  -3.88251e-019 9.70628e-020 -3.87848e-018
LeftArm  -13.8437 30.7639 -53.407
LeftForeArm  0.101249 -7.30668 -2.81129
LeftHand  -0.502101 -4.15226 6.58679
RightShoulder  6.79545 10.7691 31.2888
RightArm  7.28767 -29.5856 28.6099
RightForeArm  47.1653 13.3642 -3.81251
RightHand  -0.554832 11.6516 -3.94575
LeftUpLeg  -76.1646 0.508782 -24.5104
LeftLeg  88.8488 -16.3332 32.8678
LeftFoot  -34.9467 -0.919483 -4.26783
LeftToes  -3.44176e-011 4.05998e-011 -5.21293e-012
316
root  6.35497 26.3449 -58.4521 -163.389 1.86079 174.24
RightUpLeg  -4.84334 -9.70503 -4.36117
RightLeg  77.7869 14.1699 -12.1982
RightFoot  -22.012 1.21999 14.8651
RightToes  -5.82073e-011 -3.18055e-015 -2.98177e-016
Spine  28.9408 2.93292 0.259986
Spine1  -5.9017 2.43591 -14.2548
HEad  -31.4429 -10.0825 6.17554
LeftShoulder1  -3.88251e-019 9.70628e-020 -3.87848e-018
LeftArm  -13.2648 35.6768 -52.1622
LeftForeArm  3.58419 -6.7708 -2.88529
LeftHand  -0.344453 -3.55387 4.90095
RightShoulder  6.72342 10.6607 31.1376
RightArm  8.14921 -32.7508 27.5971
RightForeArm  43.4017 13.8286 -3.76405
RightHand  -0.604045 10.6649 -4.51582
LeftUpLeg  -73.7707 1.39405 -22.9122
LeftLeg  85.6047 -14.2743 31.975
LeftFoot  -34.288 -0.773526 -3.63469
LeftToes  -3.44176e-011 4.05998e-011 -5.21293e-012
317
root  6.36111 27.4993 -58.6943 -162.696 1.85039 175.158
RightUpLeg  -3.48774 -8.5868 -3.4119
RightLeg  72.08 13.6999 -9.19724
RightFoot  -21.1943 1.12443 15.0706
RightToes  -5.82073e-011 -3.18055e-015 -2.98177e-016
Spine  28.0489 2.71855 0.309745
Spine1  -7.05863 2.1514 -13.6631
HEad  -31.8951 -9.55245 5.15859
LeftShoulder1  -3.88251e-019 9.70628e-020 -3.87848e-018
LeftArm  -12.7722 39.7944 -51.747
LeftForeArm  6.09633 -6.85972 -3.01978
LeftHand  -0.288412 -3.27982 4.25537
RightShoulder  6.62755 10.5675 30.8312
RightArm  10.8888 -35.7242 26.0598
RightForeArm  37.0427 15.3896 -4.462
RightHand  -0.641303 9.61132 -5.09741
LeftUpLeg  -71.2816 2.21696 -21.6377
LeftLeg  81.889 -12.0683 30.7422
LeftFoot  -33.4297 -0.602564 -2.85217
LeftToes  -3.44176e-011 4.05998e-011 -5.21293e-012
318
root  6.35892 28.7058 -58.9137 -161.934 1.95348 175.963
RightUpLeg  -3.61289 -7.24949 -2.58367
RightLeg  67.944 13.9458 -6.37609
RightFoot  -17.8174 0.694556 16.0691
RightToes  -5.82073e-011 -3.18055e-015 -2.98177e-016
Spine  27.1368 2.49862 0.799548
Spine1  -7.69195 2.14604 -13.6759
HEad  -32.4177 -9.30663 4.58546
LeftShoulder1  -3.88251e-019 9.70628e-020 -3.87848e-018
LeftArm  -13.3712 42.905 -52.3694
LeftForeArm  6.02573 -7.13513 -2.91663
LeftHand  -0.263204 -2.90729 4.05558
RightShoulder  6.68893 10.544 31.1989
RightArm  15.4637 -37.6761 23.9014
RightForeArm  28.6836 17.3085 -5.93833
RightHand  -0.778105 8.6715 -6.52585
LeftUpLeg  -68.7521 3.03456 -20.536
LeftLeg  77.6926 -9.79623 29.2881
LeftFoot  -32.2105 -0.422135 -1.98618
LeftToes  -3.44176e-011 4.05998e-011 -5.21293e-012
